# xmcd
#
# Track frame offsets:
#  150
#  10178
#  20693
#  36436
#  50291
#  64068
#  77278
#  95935
#  106398
#  118773
#  131533
#  150613
#  159325
#  171297
#
# Disc length: 2446 seconds
#
# Revision: 0
# Processed by: cddbd v1.5.1PL2 Copyright (c) Steve Scherf et al.
# Submitted via: Collectorz.com_Music_Collector 6.11
#
DISCID=b0098c0e
DTITLE=Chris Hillman - Ever Call Ready
DYEAR=2006
DGENRE=Bluegrass - Gospel
TTITLE0=I'll Be No Stranger There
TTITLE1=River of Jordan
TTITLE2=Don't Let Them Take the Bible Out of Our School Rooms
TTITLE3=Church in the Wildwoods
TTITLE4=God Loves His Children
TTITLE5=Rule Over My Soul
TTITLE6=It's Beginning to Rain
TTITLE7=Livin' in the Name of Love
TTITLE8=Boat of Love
TTITLE9=Where Could I Go
TTITLE10=Men Are So Busy
TTITLE11=On the Sea of Life
TTITLE12=I'm Using My Bible for a Roadmap
TTITLE13=Panhandle Rag
EXTD=
EXTT0=
EXTT1=
EXTT2=
EXTT3=
EXTT4=
EXTT5=
EXTT6=
EXTT7=
EXTT8=
EXTT9=
EXTT10=
EXTT11=
EXTT12=
EXTT13=
PLAYORDER=
